<?xml version="1.0" encoding="utf-8"?>
<svg xmlns="http://www.w3.org/2000/svg" xmlns:xlink="http://www.w3.org/1999/xlink" width="600" height="400" viewBox="0 0 2400 1600">
<defs>
  <clipPath id="clip960">
    <rect x="0" y="0" width="2400" height="1600"/>
  </clipPath>
</defs>
<path clip-path="url(#clip960)" d="
M0 1600 L2400 1600 L2400 0 L0 0  Z
  " fill="#ffffff" fill-rule="evenodd" fill-opacity="1"/>
<defs>
  <clipPath id="clip961">
    <rect x="480" y="0" width="1681" height="1600"/>
  </clipPath>
</defs>
<path clip-path="url(#clip960)" d="
M264.773 1486.45 L2352.76 1486.45 L2352.76 47.2441 L264.773 47.2441  Z
  " fill="#ffffff" fill-rule="evenodd" fill-opacity="1"/>
<defs>
  <clipPath id="clip962">
    <rect x="264" y="47" width="2089" height="1440"/>
  </clipPath>
</defs>
<polyline clip-path="url(#clip962)" style="stroke:#000000; stroke-linecap:round; stroke-linejoin:round; stroke-width:2; stroke-opacity:0.1; fill:none" points="
  507.715,1486.45 507.715,47.2441 
  "/>
<polyline clip-path="url(#clip962)" style="stroke:#000000; stroke-linecap:round; stroke-linejoin:round; stroke-width:2; stroke-opacity:0.1; fill:none" points="
  717.826,1486.45 717.826,47.2441 
  "/>
<polyline clip-path="url(#clip962)" style="stroke:#000000; stroke-linecap:round; stroke-linejoin:round; stroke-width:2; stroke-opacity:0.1; fill:none" points="
  927.938,1486.45 927.938,47.2441 
  "/>
<polyline clip-path="url(#clip962)" style="stroke:#000000; stroke-linecap:round; stroke-linejoin:round; stroke-width:2; stroke-opacity:0.1; fill:none" points="
  1138.05,1486.45 1138.05,47.2441 
  "/>
<polyline clip-path="url(#clip962)" style="stroke:#000000; stroke-linecap:round; stroke-linejoin:round; stroke-width:2; stroke-opacity:0.1; fill:none" points="
  1348.16,1486.45 1348.16,47.2441 
  "/>
<polyline clip-path="url(#clip962)" style="stroke:#000000; stroke-linecap:round; stroke-linejoin:round; stroke-width:2; stroke-opacity:0.1; fill:none" points="
  1558.27,1486.45 1558.27,47.2441 
  "/>
<polyline clip-path="url(#clip962)" style="stroke:#000000; stroke-linecap:round; stroke-linejoin:round; stroke-width:2; stroke-opacity:0.1; fill:none" points="
  1768.38,1486.45 1768.38,47.2441 
  "/>
<polyline clip-path="url(#clip962)" style="stroke:#000000; stroke-linecap:round; stroke-linejoin:round; stroke-width:2; stroke-opacity:0.1; fill:none" points="
  1978.49,1486.45 1978.49,47.2441 
  "/>
<polyline clip-path="url(#clip962)" style="stroke:#000000; stroke-linecap:round; stroke-linejoin:round; stroke-width:2; stroke-opacity:0.1; fill:none" points="
  2188.61,1486.45 2188.61,47.2441 
  "/>
<polyline clip-path="url(#clip960)" style="stroke:#000000; stroke-linecap:round; stroke-linejoin:round; stroke-width:4; stroke-opacity:1; fill:none" points="
  264.773,1486.45 2352.76,1486.45 
  "/>
<polyline clip-path="url(#clip960)" style="stroke:#000000; stroke-linecap:round; stroke-linejoin:round; stroke-width:4; stroke-opacity:1; fill:none" points="
  507.715,1486.45 507.715,1467.55 
  "/>
<polyline clip-path="url(#clip960)" style="stroke:#000000; stroke-linecap:round; stroke-linejoin:round; stroke-width:4; stroke-opacity:1; fill:none" points="
  717.826,1486.45 717.826,1467.55 
  "/>
<polyline clip-path="url(#clip960)" style="stroke:#000000; stroke-linecap:round; stroke-linejoin:round; stroke-width:4; stroke-opacity:1; fill:none" points="
  927.938,1486.45 927.938,1467.55 
  "/>
<polyline clip-path="url(#clip960)" style="stroke:#000000; stroke-linecap:round; stroke-linejoin:round; stroke-width:4; stroke-opacity:1; fill:none" points="
  1138.05,1486.45 1138.05,1467.55 
  "/>
<polyline clip-path="url(#clip960)" style="stroke:#000000; stroke-linecap:round; stroke-linejoin:round; stroke-width:4; stroke-opacity:1; fill:none" points="
  1348.16,1486.45 1348.16,1467.55 
  "/>
<polyline clip-path="url(#clip960)" style="stroke:#000000; stroke-linecap:round; stroke-linejoin:round; stroke-width:4; stroke-opacity:1; fill:none" points="
  1558.27,1486.45 1558.27,1467.55 
  "/>
<polyline clip-path="url(#clip960)" style="stroke:#000000; stroke-linecap:round; stroke-linejoin:round; stroke-width:4; stroke-opacity:1; fill:none" points="
  1768.38,1486.45 1768.38,1467.55 
  "/>
<polyline clip-path="url(#clip960)" style="stroke:#000000; stroke-linecap:round; stroke-linejoin:round; stroke-width:4; stroke-opacity:1; fill:none" points="
  1978.49,1486.45 1978.49,1467.55 
  "/>
<polyline clip-path="url(#clip960)" style="stroke:#000000; stroke-linecap:round; stroke-linejoin:round; stroke-width:4; stroke-opacity:1; fill:none" points="
  2188.61,1486.45 2188.61,1467.55 
  "/>
<path clip-path="url(#clip960)" d="M428.572 1544.91 L436.211 1544.91 L436.211 1518.55 L427.9 1520.21 L427.9 1515.95 L436.164 1514.29 L440.84 1514.29 L440.84 1544.91 L448.479 1544.91 L448.479 1548.85 L428.572 1548.85 L428.572 1544.91 Z" fill="#000000" fill-rule="evenodd" fill-opacity="1" /><path clip-path="url(#clip960)" d="M467.923 1517.37 Q464.312 1517.37 462.484 1520.93 Q460.678 1524.47 460.678 1531.6 Q460.678 1538.71 462.484 1542.27 Q464.312 1545.82 467.923 1545.82 Q471.558 1545.82 473.363 1542.27 Q475.192 1538.71 475.192 1531.6 Q475.192 1524.47 473.363 1520.93 Q471.558 1517.37 467.923 1517.37 M467.923 1513.66 Q473.733 1513.66 476.789 1518.27 Q479.868 1522.85 479.868 1531.6 Q479.868 1540.33 476.789 1544.94 Q473.733 1549.52 467.923 1549.52 Q462.113 1549.52 459.034 1544.94 Q455.979 1540.33 455.979 1531.6 Q455.979 1522.85 459.034 1518.27 Q462.113 1513.66 467.923 1513.66 Z" fill="#000000" fill-rule="evenodd" fill-opacity="1" /><path clip-path="url(#clip960)" d="M502.738 1514.29 L509.706 1514.29 L518.525 1537.81 L527.391 1514.29 L534.358 1514.29 L534.358 1548.85 L529.798 1548.85 L529.798 1518.5 L520.886 1542.2 L516.187 1542.2 L507.275 1518.5 L507.275 1548.85 L502.738 1548.85 L502.738 1514.29 Z" fill="#000000" fill-rule="evenodd" fill-opacity="1" /><path clip-path="url(#clip960)" d="M555.238 1535.82 Q550.076 1535.82 548.085 1537 Q546.094 1538.18 546.094 1541.02 Q546.094 1543.29 547.576 1544.63 Q549.08 1545.95 551.65 1545.95 Q555.191 1545.95 557.321 1543.45 Q559.474 1540.93 559.474 1536.76 L559.474 1535.82 L555.238 1535.82 M563.733 1534.06 L563.733 1548.85 L559.474 1548.85 L559.474 1544.91 Q558.015 1547.27 555.84 1548.41 Q553.664 1549.52 550.515 1549.52 Q546.534 1549.52 544.173 1547.3 Q541.835 1545.05 541.835 1541.3 Q541.835 1536.93 544.752 1534.7 Q547.691 1532.48 553.502 1532.48 L559.474 1532.48 L559.474 1532.07 Q559.474 1529.13 557.529 1527.53 Q555.608 1525.91 552.113 1525.91 Q549.89 1525.91 547.784 1526.44 Q545.678 1526.97 543.733 1528.04 L543.733 1524.1 Q546.071 1523.2 548.27 1522.76 Q550.469 1522.3 552.553 1522.3 Q558.177 1522.3 560.955 1525.21 Q563.733 1528.13 563.733 1534.06 Z" fill="#000000" fill-rule="evenodd" fill-opacity="1" /><path clip-path="url(#clip960)" d="M587.529 1526.9 Q586.812 1526.49 585.955 1526.3 Q585.122 1526.09 584.103 1526.09 Q580.492 1526.09 578.548 1528.45 Q576.626 1530.79 576.626 1535.19 L576.626 1548.85 L572.344 1548.85 L572.344 1522.92 L576.626 1522.92 L576.626 1526.95 Q577.969 1524.59 580.122 1523.45 Q582.275 1522.3 585.353 1522.3 Q585.793 1522.3 586.325 1522.37 Q586.858 1522.41 587.506 1522.53 L587.529 1526.9 Z" fill="#000000" fill-rule="evenodd" fill-opacity="1" /><path clip-path="url(#clip960)" d="M638.683 1544.91 L646.322 1544.91 L646.322 1518.55 L638.012 1520.21 L638.012 1515.95 L646.276 1514.29 L650.952 1514.29 L650.952 1544.91 L658.59 1544.91 L658.59 1548.85 L638.683 1548.85 L638.683 1544.91 Z" fill="#000000" fill-rule="evenodd" fill-opacity="1" /><path clip-path="url(#clip960)" d="M678.035 1532.44 Q674.701 1532.44 672.78 1534.22 Q670.882 1536 670.882 1539.13 Q670.882 1542.25 672.78 1544.03 Q674.701 1545.82 678.035 1545.82 Q681.368 1545.82 683.289 1544.03 Q685.211 1542.23 685.211 1539.13 Q685.211 1536 683.289 1534.22 Q681.391 1532.44 678.035 1532.44 M673.359 1530.45 Q670.35 1529.7 668.66 1527.64 Q666.993 1525.58 666.993 1522.62 Q666.993 1518.48 669.933 1516.07 Q672.896 1513.66 678.035 1513.66 Q683.197 1513.66 686.137 1516.07 Q689.076 1518.48 689.076 1522.62 Q689.076 1525.58 687.387 1527.64 Q685.72 1529.7 682.734 1530.45 Q686.113 1531.23 687.988 1533.52 Q689.887 1535.82 689.887 1539.13 Q689.887 1544.15 686.808 1546.83 Q683.752 1549.52 678.035 1549.52 Q672.317 1549.52 669.239 1546.83 Q666.183 1544.15 666.183 1539.13 Q666.183 1535.82 668.081 1533.52 Q669.979 1531.23 673.359 1530.45 M671.646 1523.06 Q671.646 1525.75 673.313 1527.25 Q675.002 1528.76 678.035 1528.76 Q681.044 1528.76 682.734 1527.25 Q684.447 1525.75 684.447 1523.06 Q684.447 1520.38 682.734 1518.87 Q681.044 1517.37 678.035 1517.37 Q675.002 1517.37 673.313 1518.87 Q671.646 1520.38 671.646 1523.06 Z" fill="#000000" fill-rule="evenodd" fill-opacity="1" /><path clip-path="url(#clip960)" d="M712.849 1514.29 L719.817 1514.29 L728.636 1537.81 L737.502 1514.29 L744.47 1514.29 L744.47 1548.85 L739.909 1548.85 L739.909 1518.5 L730.997 1542.2 L726.298 1542.2 L717.386 1518.5 L717.386 1548.85 L712.849 1548.85 L712.849 1514.29 Z" fill="#000000" fill-rule="evenodd" fill-opacity="1" /><path clip-path="url(#clip960)" d="M765.349 1535.82 Q760.187 1535.82 758.196 1537 Q756.206 1538.18 756.206 1541.02 Q756.206 1543.29 757.687 1544.63 Q759.192 1545.95 761.761 1545.95 Q765.303 1545.95 767.432 1543.45 Q769.585 1540.93 769.585 1536.76 L769.585 1535.82 L765.349 1535.82 M773.844 1534.06 L773.844 1548.85 L769.585 1548.85 L769.585 1544.91 Q768.127 1547.27 765.951 1548.41 Q763.775 1549.52 760.627 1549.52 Q756.645 1549.52 754.284 1547.3 Q751.946 1545.05 751.946 1541.3 Q751.946 1536.93 754.863 1534.7 Q757.803 1532.48 763.613 1532.48 L769.585 1532.48 L769.585 1532.07 Q769.585 1529.13 767.641 1527.53 Q765.719 1525.91 762.224 1525.91 Q760.002 1525.91 757.895 1526.44 Q755.789 1526.97 753.845 1528.04 L753.845 1524.1 Q756.183 1523.2 758.382 1522.76 Q760.581 1522.3 762.664 1522.3 Q768.289 1522.3 771.067 1525.21 Q773.844 1528.13 773.844 1534.06 Z" fill="#000000" fill-rule="evenodd" fill-opacity="1" /><path clip-path="url(#clip960)" d="M797.641 1526.9 Q796.923 1526.49 796.067 1526.3 Q795.233 1526.09 794.215 1526.09 Q790.604 1526.09 788.659 1528.45 Q786.738 1530.79 786.738 1535.19 L786.738 1548.85 L782.456 1548.85 L782.456 1522.92 L786.738 1522.92 L786.738 1526.95 Q788.08 1524.59 790.233 1523.45 Q792.386 1522.3 795.465 1522.3 Q795.905 1522.3 796.437 1522.37 Q796.969 1522.41 797.617 1522.53 L797.641 1526.9 Z" fill="#000000" fill-rule="evenodd" fill-opacity="1" /><path clip-path="url(#clip960)" d="M852.88 1544.91 L869.2 1544.91 L869.2 1548.85 L847.255 1548.85 L847.255 1544.91 Q849.917 1542.16 854.501 1537.53 Q859.107 1532.88 860.288 1531.53 Q862.533 1529.01 863.413 1527.27 Q864.315 1525.51 864.315 1523.82 Q864.315 1521.07 862.371 1519.33 Q860.45 1517.6 857.348 1517.6 Q855.149 1517.6 852.695 1518.36 Q850.264 1519.13 847.487 1520.68 L847.487 1515.95 Q850.311 1514.82 852.764 1514.24 Q855.218 1513.66 857.255 1513.66 Q862.626 1513.66 865.82 1516.35 Q869.014 1519.03 869.014 1523.52 Q869.014 1525.65 868.204 1527.57 Q867.417 1529.47 865.311 1532.07 Q864.732 1532.74 861.63 1535.95 Q858.528 1539.15 852.88 1544.91 Z" fill="#000000" fill-rule="evenodd" fill-opacity="1" /><path clip-path="url(#clip960)" d="M889.593 1529.7 Q886.445 1529.7 884.593 1531.86 Q882.764 1534.01 882.764 1537.76 Q882.764 1541.49 884.593 1543.66 Q886.445 1545.82 889.593 1545.82 Q892.741 1545.82 894.57 1543.66 Q896.422 1541.49 896.422 1537.76 Q896.422 1534.01 894.57 1531.86 Q892.741 1529.7 889.593 1529.7 M898.875 1515.05 L898.875 1519.31 Q897.116 1518.48 895.311 1518.04 Q893.528 1517.6 891.769 1517.6 Q887.139 1517.6 884.686 1520.72 Q882.255 1523.85 881.908 1530.17 Q883.274 1528.15 885.334 1527.09 Q887.394 1526 889.871 1526 Q895.079 1526 898.088 1529.17 Q901.121 1532.32 901.121 1537.76 Q901.121 1543.08 897.973 1546.3 Q894.824 1549.52 889.593 1549.52 Q883.598 1549.52 880.426 1544.94 Q877.255 1540.33 877.255 1531.6 Q877.255 1523.41 881.144 1518.55 Q885.033 1513.66 891.584 1513.66 Q893.343 1513.66 895.125 1514.01 Q896.931 1514.36 898.875 1515.05 Z" fill="#000000" fill-rule="evenodd" fill-opacity="1" /><path clip-path="url(#clip960)" d="M923.829 1514.29 L930.796 1514.29 L939.616 1537.81 L948.482 1514.29 L955.449 1514.29 L955.449 1548.85 L950.889 1548.85 L950.889 1518.5 L941.977 1542.2 L937.278 1542.2 L928.366 1518.5 L928.366 1548.85 L923.829 1548.85 L923.829 1514.29 Z" fill="#000000" fill-rule="evenodd" fill-opacity="1" /><path clip-path="url(#clip960)" d="M976.329 1535.82 Q971.167 1535.82 969.176 1537 Q967.185 1538.18 967.185 1541.02 Q967.185 1543.29 968.667 1544.63 Q970.171 1545.95 972.741 1545.95 Q976.282 1545.95 978.412 1543.45 Q980.565 1540.93 980.565 1536.76 L980.565 1535.82 L976.329 1535.82 M984.824 1534.06 L984.824 1548.85 L980.565 1548.85 L980.565 1544.91 Q979.106 1547.27 976.93 1548.41 Q974.755 1549.52 971.606 1549.52 Q967.625 1549.52 965.264 1547.3 Q962.926 1545.05 962.926 1541.3 Q962.926 1536.93 965.843 1534.7 Q968.782 1532.48 974.593 1532.48 L980.565 1532.48 L980.565 1532.07 Q980.565 1529.13 978.62 1527.53 Q976.699 1525.91 973.204 1525.91 Q970.981 1525.91 968.875 1526.44 Q966.768 1526.97 964.824 1528.04 L964.824 1524.1 Q967.162 1523.2 969.361 1522.76 Q971.56 1522.3 973.643 1522.3 Q979.268 1522.3 982.046 1525.21 Q984.824 1528.13 984.824 1534.06 Z" fill="#000000" fill-rule="evenodd" fill-opacity="1" /><path clip-path="url(#clip960)" d="M1008.62 1526.9 Q1007.9 1526.49 1007.05 1526.3 Q1006.21 1526.09 1005.19 1526.09 Q1001.58 1526.09 999.639 1528.45 Q997.717 1530.79 997.717 1535.19 L997.717 1548.85 L993.435 1548.85 L993.435 1522.92 L997.717 1522.92 L997.717 1526.95 Q999.06 1524.59 1001.21 1523.45 Q1003.37 1522.3 1006.44 1522.3 Q1006.88 1522.3 1007.42 1522.37 Q1007.95 1522.41 1008.6 1522.53 L1008.62 1526.9 Z" fill="#000000" fill-rule="evenodd" fill-opacity="1" /><path clip-path="url(#clip960)" d="M1091.86 1530.21 Q1095.21 1530.93 1097.09 1533.2 Q1098.99 1535.47 1098.99 1538.8 Q1098.99 1543.92 1095.47 1546.72 Q1091.95 1549.52 1085.47 1549.52 Q1083.29 1549.52 1080.98 1549.08 Q1078.69 1548.66 1076.23 1547.81 L1076.23 1543.29 Q1078.18 1544.43 1080.49 1545.01 Q1082.81 1545.58 1085.33 1545.58 Q1089.73 1545.58 1092.02 1543.85 Q1094.33 1542.11 1094.33 1538.8 Q1094.33 1535.75 1092.18 1534.03 Q1090.05 1532.3 1086.23 1532.3 L1082.2 1532.3 L1082.2 1528.45 L1086.42 1528.45 Q1089.87 1528.45 1091.7 1527.09 Q1093.52 1525.7 1093.52 1523.11 Q1093.52 1520.45 1091.63 1519.03 Q1089.75 1517.6 1086.23 1517.6 Q1084.31 1517.6 1082.11 1518.01 Q1079.91 1518.43 1077.27 1519.31 L1077.27 1515.14 Q1079.94 1514.4 1082.25 1514.03 Q1084.59 1513.66 1086.65 1513.66 Q1091.97 1513.66 1095.07 1516.09 Q1098.18 1518.5 1098.18 1522.62 Q1098.18 1525.49 1096.53 1527.48 Q1094.89 1529.45 1091.86 1530.21 Z" fill="#000000" fill-rule="evenodd" fill-opacity="1" /><path clip-path="url(#clip960)" d="M1134.06 1518.89 L1127.71 1536.09 L1140.42 1536.09 L1134.06 1518.89 M1131.42 1514.29 L1136.72 1514.29 L1149.89 1548.85 L1145.03 1548.85 L1141.88 1539.98 L1126.3 1539.98 L1123.15 1548.85 L1118.22 1548.85 L1131.42 1514.29 Z" fill="#000000" fill-rule="evenodd" fill-opacity="1" /><path clip-path="url(#clip960)" d="M1158.87 1544.96 L1158.87 1558.71 L1154.59 1558.71 L1154.59 1522.92 L1158.87 1522.92 L1158.87 1526.86 Q1160.21 1524.54 1162.25 1523.43 Q1164.31 1522.3 1167.16 1522.3 Q1171.88 1522.3 1174.82 1526.05 Q1177.78 1529.8 1177.78 1535.91 Q1177.78 1542.02 1174.82 1545.77 Q1171.88 1549.52 1167.16 1549.52 Q1164.31 1549.52 1162.25 1548.41 Q1160.21 1547.27 1158.87 1544.96 M1173.36 1535.91 Q1173.36 1531.21 1171.42 1528.55 Q1169.5 1525.86 1166.12 1525.86 Q1162.74 1525.86 1160.79 1528.55 Q1158.87 1531.21 1158.87 1535.91 Q1158.87 1540.61 1160.79 1543.29 Q1162.74 1545.95 1166.12 1545.95 Q1169.5 1545.95 1171.42 1543.29 Q1173.36 1540.61 1173.36 1535.91 Z" fill="#000000" fill-rule="evenodd" fill-opacity="1" /><path clip-path="url(#clip960)" d="M1199.87 1526.9 Q1199.15 1526.49 1198.29 1526.3 Q1197.46 1526.09 1196.44 1526.09 Q1192.83 1526.09 1190.88 1528.45 Q1188.96 1530.79 1188.96 1535.19 L1188.96 1548.85 L1184.68 1548.85 L1184.68 1522.92 L1188.96 1522.92 L1188.96 1526.95 Q1190.31 1524.59 1192.46 1523.45 Q1194.61 1522.3 1197.69 1522.3 Q1198.13 1522.3 1198.66 1522.37 Q1199.19 1522.41 1199.84 1522.53 L1199.87 1526.9 Z" fill="#000000" fill-rule="evenodd" fill-opacity="1" /><path clip-path="url(#clip960)" d="M1272.73 1544.91 L1280.37 1544.91 L1280.37 1518.55 L1272.06 1520.21 L1272.06 1515.95 L1280.33 1514.29 L1285 1514.29 L1285 1544.91 L1292.64 1544.91 L1292.64 1548.85 L1272.73 1548.85 L1272.73 1544.91 Z" fill="#000000" fill-rule="evenodd" fill-opacity="1" /><path clip-path="url(#clip960)" d="M1302.89 1544.91 L1310.53 1544.91 L1310.53 1518.55 L1302.22 1520.21 L1302.22 1515.95 L1310.49 1514.29 L1315.16 1514.29 L1315.16 1544.91 L1322.8 1544.91 L1322.8 1548.85 L1302.89 1548.85 L1302.89 1544.91 Z" fill="#000000" fill-rule="evenodd" fill-opacity="1" /><path clip-path="url(#clip960)" d="M1358.45 1518.89 L1352.11 1536.09 L1364.82 1536.09 L1358.45 1518.89 M1355.81 1514.29 L1361.11 1514.29 L1374.28 1548.85 L1369.42 1548.85 L1366.27 1539.98 L1350.7 1539.98 L1347.55 1548.85 L1342.62 1548.85 L1355.81 1514.29 Z" fill="#000000" fill-rule="evenodd" fill-opacity="1" /><path clip-path="url(#clip960)" d="M1383.26 1544.96 L1383.26 1558.71 L1378.98 1558.71 L1378.98 1522.92 L1383.26 1522.92 L1383.26 1526.86 Q1384.61 1524.54 1386.64 1523.43 Q1388.7 1522.3 1391.55 1522.3 Q1396.27 1522.3 1399.21 1526.05 Q1402.18 1529.8 1402.18 1535.91 Q1402.18 1542.02 1399.21 1545.77 Q1396.27 1549.52 1391.55 1549.52 Q1388.7 1549.52 1386.64 1548.41 Q1384.61 1547.27 1383.26 1544.96 M1397.76 1535.91 Q1397.76 1531.21 1395.81 1528.55 Q1393.89 1525.86 1390.51 1525.86 Q1387.13 1525.86 1385.19 1528.55 Q1383.26 1531.21 1383.26 1535.91 Q1383.26 1540.61 1385.19 1543.29 Q1387.13 1545.95 1390.51 1545.95 Q1393.89 1545.95 1395.81 1543.29 Q1397.76 1540.61 1397.76 1535.91 Z" fill="#000000" fill-rule="evenodd" fill-opacity="1" /><path clip-path="url(#clip960)" d="M1424.26 1526.9 Q1423.54 1526.49 1422.69 1526.3 Q1421.85 1526.09 1420.83 1526.09 Q1417.22 1526.09 1415.28 1528.45 Q1413.36 1530.79 1413.36 1535.19 L1413.36 1548.85 L1409.07 1548.85 L1409.07 1522.92 L1413.36 1522.92 L1413.36 1526.95 Q1414.7 1524.59 1416.85 1523.45 Q1419.01 1522.3 1422.08 1522.3 Q1422.52 1522.3 1423.06 1522.37 Q1423.59 1522.41 1424.24 1522.53 L1424.26 1526.9 Z" fill="#000000" fill-rule="evenodd" fill-opacity="1" /><path clip-path="url(#clip960)" d="M1482.84 1544.91 L1490.48 1544.91 L1490.48 1518.55 L1482.17 1520.21 L1482.17 1515.95 L1490.44 1514.29 L1495.11 1514.29 L1495.11 1544.91 L1502.75 1544.91 L1502.75 1548.85 L1482.84 1548.85 L1482.84 1544.91 Z" fill="#000000" fill-rule="evenodd" fill-opacity="1" /><path clip-path="url(#clip960)" d="M1512.33 1548.13 L1512.33 1543.87 Q1514.09 1544.7 1515.9 1545.14 Q1517.71 1545.58 1519.44 1545.58 Q1524.07 1545.58 1526.5 1542.48 Q1528.96 1539.36 1529.3 1533.01 Q1527.96 1535.01 1525.9 1536.07 Q1523.84 1537.13 1521.34 1537.13 Q1516.15 1537.13 1513.12 1534.01 Q1510.11 1530.86 1510.11 1525.42 Q1510.11 1520.1 1513.26 1516.88 Q1516.41 1513.66 1521.64 1513.66 Q1527.64 1513.66 1530.78 1518.27 Q1533.96 1522.85 1533.96 1531.6 Q1533.96 1539.77 1530.07 1544.66 Q1526.2 1549.52 1519.65 1549.52 Q1517.89 1549.52 1516.08 1549.17 Q1514.28 1548.82 1512.33 1548.13 M1521.64 1533.48 Q1524.79 1533.48 1526.62 1531.32 Q1528.47 1529.17 1528.47 1525.42 Q1528.47 1521.7 1526.62 1519.54 Q1524.79 1517.37 1521.64 1517.37 Q1518.49 1517.37 1516.64 1519.54 Q1514.81 1521.7 1514.81 1525.42 Q1514.81 1529.17 1516.64 1531.32 Q1518.49 1533.48 1521.64 1533.48 Z" fill="#000000" fill-rule="evenodd" fill-opacity="1" /><path clip-path="url(#clip960)" d="M1568.56 1518.89 L1562.22 1536.09 L1574.93 1536.09 L1568.56 1518.89 M1565.92 1514.29 L1571.22 1514.29 L1584.39 1548.85 L1579.53 1548.85 L1576.39 1539.98 L1560.81 1539.98 L1557.66 1548.85 L1552.73 1548.85 L1565.92 1514.29 Z" fill="#000000" fill-rule="evenodd" fill-opacity="1" /><path clip-path="url(#clip960)" d="M1593.38 1544.96 L1593.38 1558.71 L1589.09 1558.71 L1589.09 1522.92 L1593.38 1522.92 L1593.38 1526.86 Q1594.72 1524.54 1596.76 1523.43 Q1598.82 1522.3 1601.66 1522.3 Q1606.39 1522.3 1609.32 1526.05 Q1612.29 1529.8 1612.29 1535.91 Q1612.29 1542.02 1609.32 1545.77 Q1606.39 1549.52 1601.66 1549.52 Q1598.82 1549.52 1596.76 1548.41 Q1594.72 1547.27 1593.38 1544.96 M1607.87 1535.91 Q1607.87 1531.21 1605.92 1528.55 Q1604 1525.86 1600.62 1525.86 Q1597.24 1525.86 1595.3 1528.55 Q1593.38 1531.21 1593.38 1535.91 Q1593.38 1540.61 1595.3 1543.29 Q1597.24 1545.95 1600.62 1545.95 Q1604 1545.95 1605.92 1543.29 Q1607.87 1540.61 1607.87 1535.91 Z" fill="#000000" fill-rule="evenodd" fill-opacity="1" /><path clip-path="url(#clip960)" d="M1634.37 1526.9 Q1633.65 1526.49 1632.8 1526.3 Q1631.96 1526.09 1630.95 1526.09 Q1627.33 1526.09 1625.39 1528.45 Q1623.47 1530.79 1623.47 1535.19 L1623.47 1548.85 L1619.19 1548.85 L1619.19 1522.92 L1623.47 1522.92 L1623.47 1526.95 Q1624.81 1524.59 1626.96 1523.45 Q1629.12 1522.3 1632.2 1522.3 Q1632.64 1522.3 1633.17 1522.37 Q1633.7 1522.41 1634.35 1522.53 L1634.37 1526.9 Z" fill="#000000" fill-rule="evenodd" fill-opacity="1" /><path clip-path="url(#clip960)" d="M1697.04 1544.91 L1713.36 1544.91 L1713.36 1548.85 L1691.42 1548.85 L1691.42 1544.91 Q1694.08 1542.16 1698.66 1537.53 Q1703.27 1532.88 1704.45 1531.53 Q1706.69 1529.01 1707.57 1527.27 Q1708.48 1525.51 1708.48 1523.82 Q1708.48 1521.07 1706.53 1519.33 Q1704.61 1517.6 1701.51 1517.6 Q1699.31 1517.6 1696.86 1518.36 Q1694.43 1519.13 1691.65 1520.68 L1691.65 1515.95 Q1694.47 1514.82 1696.93 1514.24 Q1699.38 1513.66 1701.42 1513.66 Q1706.79 1513.66 1709.98 1516.35 Q1713.18 1519.03 1713.18 1523.52 Q1713.18 1525.65 1712.37 1527.57 Q1711.58 1529.47 1709.47 1532.07 Q1708.89 1532.74 1705.79 1535.95 Q1702.69 1539.15 1697.04 1544.91 Z" fill="#000000" fill-rule="evenodd" fill-opacity="1" /><path clip-path="url(#clip960)" d="M1721.99 1514.29 L1744.22 1514.29 L1744.22 1516.28 L1731.67 1548.85 L1726.79 1548.85 L1738.59 1518.22 L1721.99 1518.22 L1721.99 1514.29 Z" fill="#000000" fill-rule="evenodd" fill-opacity="1" /><path clip-path="url(#clip960)" d="M1779.54 1518.89 L1773.2 1536.09 L1785.91 1536.09 L1779.54 1518.89 M1776.9 1514.29 L1782.2 1514.29 L1795.37 1548.85 L1790.51 1548.85 L1787.36 1539.98 L1771.79 1539.98 L1768.64 1548.85 L1763.71 1548.85 L1776.9 1514.29 Z" fill="#000000" fill-rule="evenodd" fill-opacity="1" /><path clip-path="url(#clip960)" d="M1804.36 1544.96 L1804.36 1558.71 L1800.07 1558.71 L1800.07 1522.92 L1804.36 1522.92 L1804.36 1526.86 Q1805.7 1524.54 1807.74 1523.43 Q1809.8 1522.3 1812.64 1522.3 Q1817.36 1522.3 1820.3 1526.05 Q1823.27 1529.8 1823.27 1535.91 Q1823.27 1542.02 1820.3 1545.77 Q1817.36 1549.52 1812.64 1549.52 Q1809.8 1549.52 1807.74 1548.41 Q1805.7 1547.27 1804.36 1544.96 M1818.85 1535.91 Q1818.85 1531.21 1816.9 1528.55 Q1814.98 1525.86 1811.6 1525.86 Q1808.22 1525.86 1806.28 1528.55 Q1804.36 1531.21 1804.36 1535.91 Q1804.36 1540.61 1806.28 1543.29 Q1808.22 1545.95 1811.6 1545.95 Q1814.98 1545.95 1816.9 1543.29 Q1818.85 1540.61 1818.85 1535.91 Z" fill="#000000" fill-rule="evenodd" fill-opacity="1" /><path clip-path="url(#clip960)" d="M1845.35 1526.9 Q1844.63 1526.49 1843.78 1526.3 Q1842.94 1526.09 1841.92 1526.09 Q1838.31 1526.09 1836.37 1528.45 Q1834.45 1530.79 1834.45 1535.19 L1834.45 1548.85 L1830.17 1548.85 L1830.17 1522.92 L1834.45 1522.92 L1834.45 1526.95 Q1835.79 1524.59 1837.94 1523.45 Q1840.1 1522.3 1843.17 1522.3 Q1843.61 1522.3 1844.15 1522.37 Q1844.68 1522.41 1845.33 1522.53 L1845.35 1526.9 Z" fill="#000000" fill-rule="evenodd" fill-opacity="1" /><path clip-path="url(#clip960)" d="M1910.87 1514.29 L1929.22 1514.29 L1929.22 1518.22 L1915.15 1518.22 L1915.15 1526.7 Q1916.17 1526.35 1917.19 1526.19 Q1918.21 1526 1919.22 1526 Q1925.01 1526 1928.39 1529.17 Q1931.77 1532.34 1931.77 1537.76 Q1931.77 1543.34 1928.3 1546.44 Q1924.83 1549.52 1918.51 1549.52 Q1916.33 1549.52 1914.06 1549.15 Q1911.82 1548.78 1909.41 1548.04 L1909.41 1543.34 Q1911.49 1544.47 1913.72 1545.03 Q1915.94 1545.58 1918.41 1545.58 Q1922.42 1545.58 1924.76 1543.48 Q1927.09 1541.37 1927.09 1537.76 Q1927.09 1534.15 1924.76 1532.04 Q1922.42 1529.94 1918.41 1529.94 Q1916.54 1529.94 1914.66 1530.35 Q1912.81 1530.77 1910.87 1531.65 L1910.87 1514.29 Z" fill="#000000" fill-rule="evenodd" fill-opacity="1" /><path clip-path="url(#clip960)" d="M1955.64 1514.29 L1962.6 1514.29 L1971.42 1537.81 L1980.29 1514.29 L1987.26 1514.29 L1987.26 1548.85 L1982.7 1548.85 L1982.7 1518.5 L1973.78 1542.2 L1969.09 1542.2 L1960.17 1518.5 L1960.17 1548.85 L1955.64 1548.85 L1955.64 1514.29 Z" fill="#000000" fill-rule="evenodd" fill-opacity="1" /><path clip-path="url(#clip960)" d="M2008.14 1535.82 Q2002.97 1535.82 2000.98 1537 Q1998.99 1538.18 1998.99 1541.02 Q1998.99 1543.29 2000.47 1544.63 Q2001.98 1545.95 2004.55 1545.95 Q2008.09 1545.95 2010.22 1543.45 Q2012.37 1540.93 2012.37 1536.76 L2012.37 1535.82 L2008.14 1535.82 M2016.63 1534.06 L2016.63 1548.85 L2012.37 1548.85 L2012.37 1544.91 Q2010.91 1547.27 2008.74 1548.41 Q2006.56 1549.52 2003.41 1549.52 Q1999.43 1549.52 1997.07 1547.3 Q1994.73 1545.05 1994.73 1541.3 Q1994.73 1536.93 1997.65 1534.7 Q2000.59 1532.48 2006.4 1532.48 L2012.37 1532.48 L2012.37 1532.07 Q2012.37 1529.13 2010.43 1527.53 Q2008.51 1525.91 2005.01 1525.91 Q2002.79 1525.91 2000.68 1526.44 Q1998.58 1526.97 1996.63 1528.04 L1996.63 1524.1 Q1998.97 1523.2 2001.17 1522.76 Q2003.37 1522.3 2005.45 1522.3 Q2011.08 1522.3 2013.85 1525.21 Q2016.63 1528.13 2016.63 1534.06 Z" fill="#000000" fill-rule="evenodd" fill-opacity="1" /><path clip-path="url(#clip960)" d="M2036.19 1551.26 Q2034.39 1555.88 2032.67 1557.3 Q2030.96 1558.71 2028.09 1558.71 L2024.69 1558.71 L2024.69 1555.14 L2027.19 1555.14 Q2028.95 1555.14 2029.92 1554.31 Q2030.89 1553.48 2032.07 1550.38 L2032.83 1548.43 L2022.35 1522.92 L2026.86 1522.92 L2034.96 1543.2 L2043.07 1522.92 L2047.58 1522.92 L2036.19 1551.26 Z" fill="#000000" fill-rule="evenodd" fill-opacity="1" /><path clip-path="url(#clip960)" d="M2105.89 1544.91 L2113.53 1544.91 L2113.53 1518.55 L2105.22 1520.21 L2105.22 1515.95 L2113.48 1514.29 L2118.16 1514.29 L2118.16 1544.91 L2125.79 1544.91 L2125.79 1548.85 L2105.89 1548.85 L2105.89 1544.91 Z" fill="#000000" fill-rule="evenodd" fill-opacity="1" /><path clip-path="url(#clip960)" d="M2149.41 1530.21 Q2152.76 1530.93 2154.64 1533.2 Q2156.53 1535.47 2156.53 1538.8 Q2156.53 1543.92 2153.02 1546.72 Q2149.5 1549.52 2143.02 1549.52 Q2140.84 1549.52 2138.53 1549.08 Q2136.23 1548.66 2133.78 1547.81 L2133.78 1543.29 Q2135.72 1544.43 2138.04 1545.01 Q2140.35 1545.58 2142.88 1545.58 Q2147.28 1545.58 2149.57 1543.85 Q2151.88 1542.11 2151.88 1538.8 Q2151.88 1535.75 2149.73 1534.03 Q2147.6 1532.3 2143.78 1532.3 L2139.75 1532.3 L2139.75 1528.45 L2143.97 1528.45 Q2147.41 1528.45 2149.24 1527.09 Q2151.07 1525.7 2151.07 1523.11 Q2151.07 1520.45 2149.17 1519.03 Q2147.3 1517.6 2143.78 1517.6 Q2141.86 1517.6 2139.66 1518.01 Q2137.46 1518.43 2134.82 1519.31 L2134.82 1515.14 Q2137.48 1514.4 2139.8 1514.03 Q2142.14 1513.66 2144.2 1513.66 Q2149.52 1513.66 2152.62 1516.09 Q2155.72 1518.5 2155.72 1522.62 Q2155.72 1525.49 2154.08 1527.48 Q2152.44 1529.45 2149.41 1530.21 Z" fill="#000000" fill-rule="evenodd" fill-opacity="1" /><path clip-path="url(#clip960)" d="M2180.05 1514.29 L2187.02 1514.29 L2195.84 1537.81 L2204.71 1514.29 L2211.67 1514.29 L2211.67 1548.85 L2207.11 1548.85 L2207.11 1518.5 L2198.2 1542.2 L2193.5 1542.2 L2184.59 1518.5 L2184.59 1548.85 L2180.05 1548.85 L2180.05 1514.29 Z" fill="#000000" fill-rule="evenodd" fill-opacity="1" /><path clip-path="url(#clip960)" d="M2232.55 1535.82 Q2227.39 1535.82 2225.4 1537 Q2223.41 1538.18 2223.41 1541.02 Q2223.41 1543.29 2224.89 1544.63 Q2226.4 1545.95 2228.96 1545.95 Q2232.51 1545.95 2234.64 1543.45 Q2236.79 1540.93 2236.79 1536.76 L2236.79 1535.82 L2232.55 1535.82 M2241.05 1534.06 L2241.05 1548.85 L2236.79 1548.85 L2236.79 1544.91 Q2235.33 1547.27 2233.15 1548.41 Q2230.98 1549.52 2227.83 1549.52 Q2223.85 1549.52 2221.49 1547.3 Q2219.15 1545.05 2219.15 1541.3 Q2219.15 1536.93 2222.07 1534.7 Q2225.01 1532.48 2230.82 1532.48 L2236.79 1532.48 L2236.79 1532.07 Q2236.79 1529.13 2234.84 1527.53 Q2232.92 1525.91 2229.43 1525.91 Q2227.21 1525.91 2225.1 1526.44 Q2222.99 1526.97 2221.05 1528.04 L2221.05 1524.1 Q2223.39 1523.2 2225.59 1522.76 Q2227.78 1522.3 2229.87 1522.3 Q2235.49 1522.3 2238.27 1525.21 Q2241.05 1528.13 2241.05 1534.06 Z" fill="#000000" fill-rule="evenodd" fill-opacity="1" /><path clip-path="url(#clip960)" d="M2260.61 1551.26 Q2258.8 1555.88 2257.09 1557.3 Q2255.38 1558.71 2252.51 1558.71 L2249.1 1558.71 L2249.1 1555.14 L2251.6 1555.14 Q2253.36 1555.14 2254.34 1554.31 Q2255.31 1553.48 2256.49 1550.38 L2257.25 1548.43 L2246.77 1522.92 L2251.28 1522.92 L2259.38 1543.2 L2267.48 1522.92 L2272 1522.92 L2260.61 1551.26 Z" fill="#000000" fill-rule="evenodd" fill-opacity="1" /><polyline clip-path="url(#clip962)" style="stroke:#000000; stroke-linecap:round; stroke-linejoin:round; stroke-width:2; stroke-opacity:0.1; fill:none" points="
  264.773,1211.97 2352.76,1211.97 
  "/>
<polyline clip-path="url(#clip962)" style="stroke:#000000; stroke-linecap:round; stroke-linejoin:round; stroke-width:2; stroke-opacity:0.1; fill:none" points="
  264.773,895.219 2352.76,895.219 
  "/>
<polyline clip-path="url(#clip962)" style="stroke:#000000; stroke-linecap:round; stroke-linejoin:round; stroke-width:2; stroke-opacity:0.1; fill:none" points="
  264.773,578.466 2352.76,578.466 
  "/>
<polyline clip-path="url(#clip962)" style="stroke:#000000; stroke-linecap:round; stroke-linejoin:round; stroke-width:2; stroke-opacity:0.1; fill:none" points="
  264.773,261.714 2352.76,261.714 
  "/>
<polyline clip-path="url(#clip960)" style="stroke:#000000; stroke-linecap:round; stroke-linejoin:round; stroke-width:4; stroke-opacity:1; fill:none" points="
  264.773,1486.45 264.773,47.2441 
  "/>
<polyline clip-path="url(#clip960)" style="stroke:#000000; stroke-linecap:round; stroke-linejoin:round; stroke-width:4; stroke-opacity:1; fill:none" points="
  264.773,1211.97 283.671,1211.97 
  "/>
<polyline clip-path="url(#clip960)" style="stroke:#000000; stroke-linecap:round; stroke-linejoin:round; stroke-width:4; stroke-opacity:1; fill:none" points="
  264.773,895.219 283.671,895.219 
  "/>
<polyline clip-path="url(#clip960)" style="stroke:#000000; stroke-linecap:round; stroke-linejoin:round; stroke-width:4; stroke-opacity:1; fill:none" points="
  264.773,578.466 283.671,578.466 
  "/>
<polyline clip-path="url(#clip960)" style="stroke:#000000; stroke-linecap:round; stroke-linejoin:round; stroke-width:4; stroke-opacity:1; fill:none" points="
  264.773,261.714 283.671,261.714 
  "/>
<path clip-path="url(#clip960)" d="M126.922 1210.11 Q123.774 1210.11 121.922 1212.26 Q120.093 1214.41 120.093 1218.16 Q120.093 1221.89 121.922 1224.07 Q123.774 1226.22 126.922 1226.22 Q130.07 1226.22 131.899 1224.07 Q133.751 1221.89 133.751 1218.16 Q133.751 1214.41 131.899 1212.26 Q130.07 1210.11 126.922 1210.11 M136.204 1195.45 L136.204 1199.71 Q134.445 1198.88 132.64 1198.44 Q130.857 1198 129.098 1198 Q124.468 1198 122.015 1201.13 Q119.584 1204.25 119.237 1210.57 Q120.603 1208.56 122.663 1207.49 Q124.723 1206.4 127.2 1206.4 Q132.408 1206.4 135.417 1209.58 Q138.45 1212.72 138.45 1218.16 Q138.45 1223.49 135.302 1226.7 Q132.154 1229.92 126.922 1229.92 Q120.927 1229.92 117.756 1225.34 Q114.584 1220.73 114.584 1212.01 Q114.584 1203.81 118.473 1198.95 Q122.362 1194.07 128.913 1194.07 Q130.672 1194.07 132.455 1194.41 Q134.26 1194.76 136.204 1195.45 Z" fill="#000000" fill-rule="evenodd" fill-opacity="1" /><path clip-path="url(#clip960)" d="M156.505 1197.77 Q152.894 1197.77 151.066 1201.33 Q149.26 1204.88 149.26 1212.01 Q149.26 1219.11 151.066 1222.68 Q152.894 1226.22 156.505 1226.22 Q160.14 1226.22 161.945 1222.68 Q163.774 1219.11 163.774 1212.01 Q163.774 1204.88 161.945 1201.33 Q160.14 1197.77 156.505 1197.77 M156.505 1194.07 Q162.315 1194.07 165.371 1198.67 Q168.45 1203.26 168.45 1212.01 Q168.45 1220.73 165.371 1225.34 Q162.315 1229.92 156.505 1229.92 Q150.695 1229.92 147.616 1225.34 Q144.561 1220.73 144.561 1212.01 Q144.561 1203.26 147.616 1198.67 Q150.695 1194.07 156.505 1194.07 Z" fill="#000000" fill-rule="evenodd" fill-opacity="1" /><path clip-path="url(#clip960)" d="M186.667 1197.77 Q183.056 1197.77 181.227 1201.33 Q179.422 1204.88 179.422 1212.01 Q179.422 1219.11 181.227 1222.68 Q183.056 1226.22 186.667 1226.22 Q190.301 1226.22 192.107 1222.68 Q193.936 1219.11 193.936 1212.01 Q193.936 1204.88 192.107 1201.33 Q190.301 1197.77 186.667 1197.77 M186.667 1194.07 Q192.477 1194.07 195.533 1198.67 Q198.612 1203.26 198.612 1212.01 Q198.612 1220.73 195.533 1225.34 Q192.477 1229.92 186.667 1229.92 Q180.857 1229.92 177.778 1225.34 Q174.723 1220.73 174.723 1212.01 Q174.723 1203.26 177.778 1198.67 Q180.857 1194.07 186.667 1194.07 Z" fill="#000000" fill-rule="evenodd" fill-opacity="1" /><path clip-path="url(#clip960)" d="M216.829 1197.77 Q213.218 1197.77 211.389 1201.33 Q209.584 1204.88 209.584 1212.01 Q209.584 1219.11 211.389 1222.68 Q213.218 1226.22 216.829 1226.22 Q220.463 1226.22 222.269 1222.68 Q224.098 1219.11 224.098 1212.01 Q224.098 1204.88 222.269 1201.33 Q220.463 1197.77 216.829 1197.77 M216.829 1194.07 Q222.639 1194.07 225.695 1198.67 Q228.773 1203.26 228.773 1212.01 Q228.773 1220.73 225.695 1225.34 Q222.639 1229.92 216.829 1229.92 Q211.019 1229.92 207.94 1225.34 Q204.885 1220.73 204.885 1212.01 Q204.885 1203.26 207.94 1198.67 Q211.019 1194.07 216.829 1194.07 Z" fill="#000000" fill-rule="evenodd" fill-opacity="1" /><path clip-path="url(#clip960)" d="M115.163 877.939 L137.385 877.939 L137.385 879.929 L124.839 912.499 L119.955 912.499 L131.76 881.874 L115.163 881.874 L115.163 877.939 Z" fill="#000000" fill-rule="evenodd" fill-opacity="1" /><path clip-path="url(#clip960)" d="M156.505 881.017 Q152.894 881.017 151.066 884.582 Q149.26 888.124 149.26 895.253 Q149.26 902.36 151.066 905.924 Q152.894 909.466 156.505 909.466 Q160.14 909.466 161.945 905.924 Q163.774 902.36 163.774 895.253 Q163.774 888.124 161.945 884.582 Q160.14 881.017 156.505 881.017 M156.505 877.314 Q162.315 877.314 165.371 881.92 Q168.45 886.503 168.45 895.253 Q168.45 903.98 165.371 908.587 Q162.315 913.17 156.505 913.17 Q150.695 913.17 147.616 908.587 Q144.561 903.98 144.561 895.253 Q144.561 886.503 147.616 881.92 Q150.695 877.314 156.505 877.314 Z" fill="#000000" fill-rule="evenodd" fill-opacity="1" /><path clip-path="url(#clip960)" d="M186.667 881.017 Q183.056 881.017 181.227 884.582 Q179.422 888.124 179.422 895.253 Q179.422 902.36 181.227 905.924 Q183.056 909.466 186.667 909.466 Q190.301 909.466 192.107 905.924 Q193.936 902.36 193.936 895.253 Q193.936 888.124 192.107 884.582 Q190.301 881.017 186.667 881.017 M186.667 877.314 Q192.477 877.314 195.533 881.92 Q198.612 886.503 198.612 895.253 Q198.612 903.98 195.533 908.587 Q192.477 913.17 186.667 913.17 Q180.857 913.17 177.778 908.587 Q174.723 903.98 174.723 895.253 Q174.723 886.503 177.778 881.92 Q180.857 877.314 186.667 877.314 Z" fill="#000000" fill-rule="evenodd" fill-opacity="1" /><path clip-path="url(#clip960)" d="M216.829 881.017 Q213.218 881.017 211.389 884.582 Q209.584 888.124 209.584 895.253 Q209.584 902.36 211.389 905.924 Q213.218 909.466 216.829 909.466 Q220.463 909.466 222.269 905.924 Q224.098 902.36 224.098 895.253 Q224.098 888.124 222.269 884.582 Q220.463 881.017 216.829 881.017 M216.829 877.314 Q222.639 877.314 225.695 881.92 Q228.773 886.503 228.773 895.253 Q228.773 903.98 225.695 908.587 Q222.639 913.17 216.829 913.17 Q211.019 913.17 207.94 908.587 Q204.885 903.98 204.885 895.253 Q204.885 886.503 207.94 881.92 Q211.019 877.314 216.829 877.314 Z" fill="#000000" fill-rule="evenodd" fill-opacity="1" /><path clip-path="url(#clip960)" d="M126.343 579.334 Q123.01 579.334 121.089 581.116 Q119.191 582.899 119.191 586.024 Q119.191 589.149 121.089 590.931 Q123.01 592.714 126.343 592.714 Q129.677 592.714 131.598 590.931 Q133.519 589.126 133.519 586.024 Q133.519 582.899 131.598 581.116 Q129.7 579.334 126.343 579.334 M121.668 577.343 Q118.658 576.603 116.968 574.542 Q115.302 572.482 115.302 569.519 Q115.302 565.376 118.242 562.968 Q121.205 560.561 126.343 560.561 Q131.505 560.561 134.445 562.968 Q137.385 565.376 137.385 569.519 Q137.385 572.482 135.695 574.542 Q134.029 576.603 131.042 577.343 Q134.422 578.13 136.297 580.422 Q138.195 582.714 138.195 586.024 Q138.195 591.047 135.117 593.732 Q132.061 596.417 126.343 596.417 Q120.626 596.417 117.547 593.732 Q114.492 591.047 114.492 586.024 Q114.492 582.714 116.39 580.422 Q118.288 578.13 121.668 577.343 M119.955 569.959 Q119.955 572.644 121.621 574.149 Q123.311 575.654 126.343 575.654 Q129.353 575.654 131.042 574.149 Q132.755 572.644 132.755 569.959 Q132.755 567.274 131.042 565.769 Q129.353 564.265 126.343 564.265 Q123.311 564.265 121.621 565.769 Q119.955 567.274 119.955 569.959 Z" fill="#000000" fill-rule="evenodd" fill-opacity="1" /><path clip-path="url(#clip960)" d="M156.505 564.265 Q152.894 564.265 151.066 567.829 Q149.26 571.371 149.26 578.501 Q149.26 585.607 151.066 589.172 Q152.894 592.714 156.505 592.714 Q160.14 592.714 161.945 589.172 Q163.774 585.607 163.774 578.501 Q163.774 571.371 161.945 567.829 Q160.14 564.265 156.505 564.265 M156.505 560.561 Q162.315 560.561 165.371 565.167 Q168.45 569.751 168.45 578.501 Q168.45 587.228 165.371 591.834 Q162.315 596.417 156.505 596.417 Q150.695 596.417 147.616 591.834 Q144.561 587.228 144.561 578.501 Q144.561 569.751 147.616 565.167 Q150.695 560.561 156.505 560.561 Z" fill="#000000" fill-rule="evenodd" fill-opacity="1" /><path clip-path="url(#clip960)" d="M186.667 564.265 Q183.056 564.265 181.227 567.829 Q179.422 571.371 179.422 578.501 Q179.422 585.607 181.227 589.172 Q183.056 592.714 186.667 592.714 Q190.301 592.714 192.107 589.172 Q193.936 585.607 193.936 578.501 Q193.936 571.371 192.107 567.829 Q190.301 564.265 186.667 564.265 M186.667 560.561 Q192.477 560.561 195.533 565.167 Q198.612 569.751 198.612 578.501 Q198.612 587.228 195.533 591.834 Q192.477 596.417 186.667 596.417 Q180.857 596.417 177.778 591.834 Q174.723 587.228 174.723 578.501 Q174.723 569.751 177.778 565.167 Q180.857 560.561 186.667 560.561 Z" fill="#000000" fill-rule="evenodd" fill-opacity="1" /><path clip-path="url(#clip960)" d="M216.829 564.265 Q213.218 564.265 211.389 567.829 Q209.584 571.371 209.584 578.501 Q209.584 585.607 211.389 589.172 Q213.218 592.714 216.829 592.714 Q220.463 592.714 222.269 589.172 Q224.098 585.607 224.098 578.501 Q224.098 571.371 222.269 567.829 Q220.463 564.265 216.829 564.265 M216.829 560.561 Q222.639 560.561 225.695 565.167 Q228.773 569.751 228.773 578.501 Q228.773 587.228 225.695 591.834 Q222.639 596.417 216.829 596.417 Q211.019 596.417 207.94 591.834 Q204.885 587.228 204.885 578.501 Q204.885 569.751 207.94 565.167 Q211.019 560.561 216.829 560.561 Z" fill="#000000" fill-rule="evenodd" fill-opacity="1" /><path clip-path="url(#clip960)" d="M116.482 278.276 L116.482 274.017 Q118.242 274.85 120.047 275.29 Q121.853 275.73 123.589 275.73 Q128.218 275.73 130.649 272.628 Q133.103 269.503 133.45 263.16 Q132.107 265.151 130.047 266.216 Q127.987 267.281 125.487 267.281 Q120.302 267.281 117.269 264.156 Q114.26 261.007 114.26 255.568 Q114.26 250.244 117.408 247.026 Q120.556 243.809 125.788 243.809 Q131.783 243.809 134.931 248.415 Q138.103 252.998 138.103 261.748 Q138.103 269.919 134.214 274.804 Q130.348 279.665 123.797 279.665 Q122.038 279.665 120.232 279.318 Q118.427 278.97 116.482 278.276 M125.788 263.623 Q128.936 263.623 130.765 261.47 Q132.617 259.318 132.617 255.568 Q132.617 251.841 130.765 249.688 Q128.936 247.512 125.788 247.512 Q122.64 247.512 120.788 249.688 Q118.959 251.841 118.959 255.568 Q118.959 259.318 120.788 261.47 Q122.64 263.623 125.788 263.623 Z" fill="#000000" fill-rule="evenodd" fill-opacity="1" /><path clip-path="url(#clip960)" d="M156.505 247.512 Q152.894 247.512 151.066 251.077 Q149.26 254.619 149.26 261.748 Q149.26 268.855 151.066 272.419 Q152.894 275.961 156.505 275.961 Q160.14 275.961 161.945 272.419 Q163.774 268.855 163.774 261.748 Q163.774 254.619 161.945 251.077 Q160.14 247.512 156.505 247.512 M156.505 243.809 Q162.315 243.809 165.371 248.415 Q168.45 252.998 168.45 261.748 Q168.45 270.475 165.371 275.081 Q162.315 279.665 156.505 279.665 Q150.695 279.665 147.616 275.081 Q144.561 270.475 144.561 261.748 Q144.561 252.998 147.616 248.415 Q150.695 243.809 156.505 243.809 Z" fill="#000000" fill-rule="evenodd" fill-opacity="1" /><path clip-path="url(#clip960)" d="M186.667 247.512 Q183.056 247.512 181.227 251.077 Q179.422 254.619 179.422 261.748 Q179.422 268.855 181.227 272.419 Q183.056 275.961 186.667 275.961 Q190.301 275.961 192.107 272.419 Q193.936 268.855 193.936 261.748 Q193.936 254.619 192.107 251.077 Q190.301 247.512 186.667 247.512 M186.667 243.809 Q192.477 243.809 195.533 248.415 Q198.612 252.998 198.612 261.748 Q198.612 270.475 195.533 275.081 Q192.477 279.665 186.667 279.665 Q180.857 279.665 177.778 275.081 Q174.723 270.475 174.723 261.748 Q174.723 252.998 177.778 248.415 Q180.857 243.809 186.667 243.809 Z" fill="#000000" fill-rule="evenodd" fill-opacity="1" /><path clip-path="url(#clip960)" d="M216.829 247.512 Q213.218 247.512 211.389 251.077 Q209.584 254.619 209.584 261.748 Q209.584 268.855 211.389 272.419 Q213.218 275.961 216.829 275.961 Q220.463 275.961 222.269 272.419 Q224.098 268.855 224.098 261.748 Q224.098 254.619 222.269 251.077 Q220.463 247.512 216.829 247.512 M216.829 243.809 Q222.639 243.809 225.695 248.415 Q228.773 252.998 228.773 261.748 Q228.773 270.475 225.695 275.081 Q222.639 279.665 216.829 279.665 Q211.019 279.665 207.94 275.081 Q204.885 270.475 204.885 261.748 Q204.885 252.998 207.94 248.415 Q211.019 243.809 216.829 243.809 Z" fill="#000000" fill-rule="evenodd" fill-opacity="1" /><path clip-path="url(#clip960)" d="M16.4842 1142.84 L16.4842 1134.18 L56.238 1113.11 L16.4842 1113.11 L16.4842 1106.87 L64.0042 1106.87 L64.0042 1115.53 L24.2503 1136.6 L64.0042 1136.6 L64.0042 1142.84 L16.4842 1142.84 Z" fill="#000000" fill-rule="evenodd" fill-opacity="1" /><path clip-path="url(#clip960)" d="M14.5426 1059.54 Q21.8632 1063.81 29.0246 1065.88 Q36.186 1067.94 43.5384 1067.94 Q50.8908 1067.94 58.1159 1065.88 Q65.3091 1063.77 72.5979 1059.54 L72.5979 1064.63 Q65.1182 1069.41 57.8931 1071.8 Q50.668 1074.15 43.5384 1074.15 Q36.4406 1074.15 29.2474 1071.8 Q22.0542 1069.44 14.5426 1064.63 L14.5426 1059.54 Z" fill="#000000" fill-rule="evenodd" fill-opacity="1" /><path clip-path="url(#clip960)" d="M28.3562 1048.18 L28.3562 1042.32 L64.0042 1042.32 L64.0042 1048.18 L28.3562 1048.18 M14.479 1048.18 L14.479 1042.32 L21.895 1042.32 L21.895 1048.18 L14.479 1048.18 Z" fill="#000000" fill-rule="evenodd" fill-opacity="1" /><path clip-path="url(#clip960)" d="M42.4881 1000.44 L64.0042 1000.44 L64.0042 1006.29 L42.679 1006.29 Q37.6183 1006.29 35.1038 1008.27 Q32.5894 1010.24 32.5894 1014.19 Q32.5894 1018.93 35.6131 1021.67 Q38.6368 1024.4 43.8567 1024.4 L64.0042 1024.4 L64.0042 1030.29 L28.3562 1030.29 L28.3562 1024.4 L33.8944 1024.4 Q30.6797 1022.3 29.0883 1019.47 Q27.4968 1016.6 27.4968 1012.88 Q27.4968 1006.74 31.3163 1003.59 Q35.1038 1000.44 42.4881 1000.44 Z" fill="#000000" fill-rule="evenodd" fill-opacity="1" /><path clip-path="url(#clip960)" d="M28.3562 992.956 L28.3562 986.749 L58.275 975.609 L28.3562 964.469 L28.3562 958.263 L64.0042 971.631 L64.0042 979.588 L28.3562 992.956 Z" fill="#000000" fill-rule="evenodd" fill-opacity="1" /><path clip-path="url(#clip960)" d="M32.4621 936.365 Q32.4621 941.075 36.1542 943.813 Q39.8145 946.55 46.212 946.55 Q52.6095 946.55 56.3017 943.844 Q59.9619 941.107 59.9619 936.365 Q59.9619 931.686 56.2698 928.949 Q52.5777 926.211 46.212 926.211 Q39.8781 926.211 36.186 928.949 Q32.4621 931.686 32.4621 936.365 M27.4968 936.365 Q27.4968 928.726 32.4621 924.365 Q37.4273 920.005 46.212 920.005 Q54.9649 920.005 59.9619 924.365 Q64.9272 928.726 64.9272 936.365 Q64.9272 944.035 59.9619 948.396 Q54.9649 952.725 46.212 952.725 Q37.4273 952.725 32.4621 948.396 Q27.4968 944.035 27.4968 936.365 Z" fill="#000000" fill-rule="evenodd" fill-opacity="1" /><path clip-path="url(#clip960)" d="M14.479 910.297 L14.479 904.441 L64.0042 904.441 L64.0042 910.297 L14.479 910.297 Z" fill="#000000" fill-rule="evenodd" fill-opacity="1" /><path clip-path="url(#clip960)" d="M28.3562 896.388 L28.3562 890.182 L58.275 879.042 L28.3562 867.902 L28.3562 861.695 L64.0042 875.063 L64.0042 883.02 L28.3562 896.388 Z" fill="#000000" fill-rule="evenodd" fill-opacity="1" /><path clip-path="url(#clip960)" d="M44.7161 823.119 L47.5806 823.119 L47.5806 850.046 Q53.6281 849.664 56.8109 846.417 Q59.9619 843.139 59.9619 837.314 Q59.9619 833.941 59.1344 830.79 Q58.3069 827.607 56.6518 824.487 L62.1899 824.487 Q63.5267 827.638 64.227 830.949 Q64.9272 834.259 64.9272 837.664 Q64.9272 846.195 59.9619 851.192 Q54.9967 856.157 46.5303 856.157 Q37.7774 856.157 32.6531 851.446 Q27.4968 846.704 27.4968 838.683 Q27.4968 831.49 32.1438 827.32 Q36.7589 823.119 44.7161 823.119 M42.9973 828.975 Q38.1912 829.039 35.3266 831.681 Q32.4621 834.291 32.4621 838.619 Q32.4621 843.521 35.2312 846.481 Q38.0002 849.409 43.0292 849.855 L42.9973 828.975 Z" fill="#000000" fill-rule="evenodd" fill-opacity="1" /><path clip-path="url(#clip960)" d="M33.7671 790.049 L14.479 790.049 L14.479 784.193 L64.0042 784.193 L64.0042 790.049 L58.657 790.049 Q61.8398 791.895 63.3994 794.728 Q64.9272 797.529 64.9272 801.475 Q64.9272 807.937 59.771 812.011 Q54.6147 816.053 46.212 816.053 Q37.8093 816.053 32.6531 812.011 Q27.4968 807.937 27.4968 801.475 Q27.4968 797.529 29.0564 794.728 Q30.5842 791.895 33.7671 790.049 M46.212 810.005 Q52.6732 810.005 56.3653 807.364 Q60.0256 804.69 60.0256 800.043 Q60.0256 795.396 56.3653 792.723 Q52.6732 790.049 46.212 790.049 Q39.7508 790.049 36.0905 792.723 Q32.3984 795.396 32.3984 800.043 Q32.3984 804.69 36.0905 807.364 Q39.7508 810.005 46.212 810.005 Z" fill="#000000" fill-rule="evenodd" fill-opacity="1" /><path clip-path="url(#clip960)" d="M58.657 745.744 L77.5631 745.744 L77.5631 751.632 L28.3562 751.632 L28.3562 745.744 L33.7671 745.744 Q30.5842 743.898 29.0564 741.097 Q27.4968 738.264 27.4968 734.349 Q27.4968 727.856 32.6531 723.814 Q37.8093 719.74 46.212 719.74 Q54.6147 719.74 59.771 723.814 Q64.9272 727.856 64.9272 734.349 Q64.9272 738.264 63.3994 741.097 Q61.8398 743.898 58.657 745.744 M46.212 725.819 Q39.7508 725.819 36.0905 728.493 Q32.3984 731.134 32.3984 735.781 Q32.3984 740.428 36.0905 743.102 Q39.7508 745.744 46.212 745.744 Q52.6732 745.744 56.3653 743.102 Q60.0256 740.428 60.0256 735.781 Q60.0256 731.134 56.3653 728.493 Q52.6732 725.819 46.212 725.819 Z" fill="#000000" fill-rule="evenodd" fill-opacity="1" /><path clip-path="url(#clip960)" d="M32.4621 696.218 Q32.4621 700.929 36.1542 703.666 Q39.8145 706.404 46.212 706.404 Q52.6095 706.404 56.3017 703.698 Q59.9619 700.961 59.9619 696.218 Q59.9619 691.54 56.2698 688.802 Q52.5777 686.065 46.212 686.065 Q39.8781 686.065 36.186 688.802 Q32.4621 691.54 32.4621 696.218 M27.4968 696.218 Q27.4968 688.58 32.4621 684.219 Q37.4273 679.859 46.212 679.859 Q54.9649 679.859 59.9619 684.219 Q64.9272 688.58 64.9272 696.218 Q64.9272 703.889 59.9619 708.25 Q54.9649 712.578 46.212 712.578 Q37.4273 712.578 32.4621 708.25 Q27.4968 703.889 27.4968 696.218 Z" fill="#000000" fill-rule="evenodd" fill-opacity="1" /><path clip-path="url(#clip960)" d="M58.657 664.485 L77.5631 664.485 L77.5631 670.374 L28.3562 670.374 L28.3562 664.485 L33.7671 664.485 Q30.5842 662.639 29.0564 659.838 Q27.4968 657.006 27.4968 653.091 Q27.4968 646.598 32.6531 642.556 Q37.8093 638.482 46.212 638.482 Q54.6147 638.482 59.771 642.556 Q64.9272 646.598 64.9272 653.091 Q64.9272 657.006 63.3994 659.838 Q61.8398 662.639 58.657 664.485 M46.212 644.561 Q39.7508 644.561 36.0905 647.234 Q32.3984 649.876 32.3984 654.523 Q32.3984 659.17 36.0905 661.844 Q39.7508 664.485 46.212 664.485 Q52.6732 664.485 56.3653 661.844 Q60.0256 659.17 60.0256 654.523 Q60.0256 649.876 56.3653 647.234 Q52.6732 644.561 46.212 644.561 Z" fill="#000000" fill-rule="evenodd" fill-opacity="1" /><path clip-path="url(#clip960)" d="M49.9359 629.379 L28.3562 629.379 L28.3562 623.522 L49.7131 623.522 Q54.7739 623.522 57.3202 621.549 Q59.8346 619.575 59.8346 615.629 Q59.8346 610.886 56.8109 608.149 Q53.7872 605.38 48.5673 605.38 L28.3562 605.38 L28.3562 599.523 L64.0042 599.523 L64.0042 605.38 L58.5296 605.38 Q61.7762 607.512 63.3676 610.345 Q64.9272 613.146 64.9272 616.87 Q64.9272 623.013 61.1078 626.196 Q57.2883 629.379 49.9359 629.379 M27.4968 614.642 L27.4968 614.642 Z" fill="#000000" fill-rule="evenodd" fill-opacity="1" /><path clip-path="url(#clip960)" d="M14.479 587.46 L14.479 581.604 L64.0042 581.604 L64.0042 587.46 L14.479 587.46 Z" fill="#000000" fill-rule="evenodd" fill-opacity="1" /><path clip-path="url(#clip960)" d="M46.0847 553.149 Q46.0847 560.247 47.7079 562.984 Q49.3312 565.721 53.2461 565.721 Q56.3653 565.721 58.2114 563.684 Q60.0256 561.616 60.0256 558.083 Q60.0256 553.213 56.5881 550.285 Q53.1188 547.325 47.3897 547.325 L46.0847 547.325 L46.0847 553.149 M43.6657 541.468 L64.0042 541.468 L64.0042 547.325 L58.5933 547.325 Q61.8398 549.33 63.3994 552.322 Q64.9272 555.314 64.9272 559.642 Q64.9272 565.117 61.8716 568.363 Q58.7843 571.578 53.6281 571.578 Q47.6125 571.578 44.5569 567.568 Q41.5014 563.525 41.5014 555.536 L41.5014 547.325 L40.9285 547.325 Q36.8862 547.325 34.6901 549.998 Q32.4621 552.64 32.4621 557.446 Q32.4621 560.502 33.1941 563.398 Q33.9262 566.294 35.3903 568.968 L29.9795 568.968 Q28.7381 565.753 28.1334 562.73 Q27.4968 559.706 27.4968 556.841 Q27.4968 549.107 31.5072 545.288 Q35.5176 541.468 43.6657 541.468 Z" fill="#000000" fill-rule="evenodd" fill-opacity="1" /><path clip-path="url(#clip960)" d="M18.2347 523.612 L28.3562 523.612 L28.3562 511.549 L32.9077 511.549 L32.9077 523.612 L52.2594 523.612 Q56.6199 523.612 57.8613 522.435 Q59.1026 521.225 59.1026 517.565 L59.1026 511.549 L64.0042 511.549 L64.0042 517.565 Q64.0042 524.344 61.4897 526.923 Q58.9434 529.501 52.2594 529.501 L32.9077 529.501 L32.9077 533.797 L28.3562 533.797 L28.3562 529.501 L18.2347 529.501 L18.2347 523.612 Z" fill="#000000" fill-rule="evenodd" fill-opacity="1" /><path clip-path="url(#clip960)" d="M28.3562 503.847 L28.3562 497.99 L64.0042 497.99 L64.0042 503.847 L28.3562 503.847 M14.479 503.847 L14.479 497.99 L21.895 497.99 L21.895 503.847 L14.479 503.847 Z" fill="#000000" fill-rule="evenodd" fill-opacity="1" /><path clip-path="url(#clip960)" d="M32.4621 471.923 Q32.4621 476.633 36.1542 479.371 Q39.8145 482.108 46.212 482.108 Q52.6095 482.108 56.3017 479.403 Q59.9619 476.665 59.9619 471.923 Q59.9619 467.244 56.2698 464.507 Q52.5777 461.769 46.212 461.769 Q39.8781 461.769 36.186 464.507 Q32.4621 467.244 32.4621 471.923 M27.4968 471.923 Q27.4968 464.284 32.4621 459.923 Q37.4273 455.563 46.212 455.563 Q54.9649 455.563 59.9619 459.923 Q64.9272 464.284 64.9272 471.923 Q64.9272 479.593 59.9619 483.954 Q54.9649 488.283 46.212 488.283 Q37.4273 488.283 32.4621 483.954 Q27.4968 479.593 27.4968 471.923 Z" fill="#000000" fill-rule="evenodd" fill-opacity="1" /><path clip-path="url(#clip960)" d="M42.4881 416.223 L64.0042 416.223 L64.0042 422.079 L42.679 422.079 Q37.6183 422.079 35.1038 424.053 Q32.5894 426.026 32.5894 429.973 Q32.5894 434.715 35.6131 437.452 Q38.6368 440.19 43.8567 440.19 L64.0042 440.19 L64.0042 446.078 L28.3562 446.078 L28.3562 440.19 L33.8944 440.19 Q30.6797 438.089 29.0883 435.256 Q27.4968 432.392 27.4968 428.668 Q27.4968 422.525 31.3163 419.374 Q35.1038 416.223 42.4881 416.223 Z" fill="#000000" fill-rule="evenodd" fill-opacity="1" /><path clip-path="url(#clip960)" d="M14.5426 405.465 L14.5426 400.372 Q22.0542 395.598 29.2474 393.243 Q36.4406 390.856 43.5384 390.856 Q50.668 390.856 57.8931 393.243 Q65.1182 395.598 72.5979 400.372 L72.5979 405.465 Q65.3091 401.232 58.1159 399.163 Q50.8908 397.062 43.5384 397.062 Q36.186 397.062 29.0246 399.163 Q21.8632 401.232 14.5426 405.465 Z" fill="#000000" fill-rule="evenodd" fill-opacity="1" /><polyline clip-path="url(#clip962)" style="stroke:#7a67ee; stroke-linecap:round; stroke-linejoin:round; stroke-width:24; stroke-opacity:1; fill:none" points="
  323.867,105.967 350.131,105.967 376.395,105.967 402.659,105.967 428.923,105.967 455.187,105.967 481.451,105.967 507.715,105.967 533.979,105.967 560.243,105.967 
  586.507,105.967 612.771,105.967 639.034,105.967 665.298,105.967 691.562,105.967 717.826,105.967 744.09,105.967 770.354,105.967 796.618,105.967 822.882,105.967 
  849.146,105.967 875.41,105.967 901.674,105.967 927.938,105.967 954.202,105.967 980.466,105.967 1006.73,105.967 1032.99,105.967 1059.26,105.967 1085.52,105.967 
  1111.79,105.967 1138.05,105.967 1164.31,105.967 1190.58,105.967 1216.84,105.967 1243.1,105.967 1269.37,105.967 1295.63,105.967 1321.9,105.967 1348.16,105.967 
  1374.42,105.967 1400.69,105.967 1426.95,105.967 1453.22,105.967 1479.48,105.967 1505.74,105.967 1532.01,105.967 1558.27,105.967 1584.54,105.967 1610.8,105.967 
  1637.06,105.967 1663.33,105.967 1689.59,105.967 1715.86,105.967 1742.12,105.967 1768.38,105.967 1794.65,105.967 1820.91,105.967 1847.18,105.967 1873.44,105.967 
  1899.7,105.967 1925.97,105.967 1952.23,105.967 1978.49,105.967 2004.76,105.967 2031.02,105.967 2057.29,105.967 2083.55,105.967 2109.81,105.967 2136.08,105.967 
  2162.34,105.967 2188.61,105.967 2214.87,105.967 2241.13,105.967 2267.4,105.967 2293.66,105.967 
  "/>
<polyline clip-path="url(#clip962)" style="stroke:#1e90ff; stroke-linecap:round; stroke-linejoin:round; stroke-width:12; stroke-opacity:1; fill:none" stroke-dasharray="48, 30" points="
  323.867,105.967 350.131,106.001 376.395,106.027 402.659,105.982 428.923,105.891 455.187,105.759 481.451,105.58 507.715,105.342 533.979,105.023 560.243,104.596 
  586.507,104.026 612.771,103.268 639.034,102.27 665.298,100.971 691.562,99.3179 717.826,97.2754 744.09,94.8683 770.354,92.2378 796.618,89.7268 822.882,87.9763 
  849.146,87.9958 875.41,91.1474 901.674,98.9912 927.938,112.999 954.202,134.229 980.466,163.082 1006.73,199.245 1032.99,241.806 1059.26,289.476 1085.52,340.819 
  1111.79,394.445 1138.05,449.121 1164.31,503.831 1190.58,557.78 1216.84,610.378 1243.1,661.208 1269.37,709.996 1295.63,756.575 1321.9,800.862 1348.16,842.835 
  1374.42,882.516 1400.69,919.959 1426.95,955.24 1453.22,988.446 1479.48,1019.68 1505.74,1049.03 1532.01,1076.61 1558.27,1102.52 1584.54,1126.86 1610.8,1149.73 
  1637.06,1171.21 1663.33,1191.4 1689.59,1210.39 1715.86,1228.24 1742.12,1245.04 1768.38,1260.85 1794.65,1275.74 1820.91,1289.78 1847.18,1303.02 1873.44,1315.51 
  1899.7,1327.3 1925.97,1338.44 1952.23,1348.98 1978.49,1358.95 2004.76,1368.39 2031.02,1377.33 2057.29,1385.82 2083.55,1393.87 2109.81,1401.52 2136.08,1408.79 
  2162.34,1415.71 2188.61,1422.29 2214.87,1428.57 2241.13,1434.55 2267.4,1440.26 2293.66,1445.72 
  "/>
<polyline clip-path="url(#clip962)" style="stroke:#ff7f00; stroke-linecap:round; stroke-linejoin:round; stroke-width:12; stroke-opacity:1; fill:none" stroke-dasharray="6, 12" points="
  323.867,105.967 350.131,105.967 376.395,105.967 402.659,105.967 428.923,105.967 455.187,105.967 481.451,105.967 507.715,105.967 533.979,105.967 560.243,105.967 
  586.507,105.967 612.771,105.967 639.034,105.967 665.298,105.967 691.562,105.967 717.826,105.967 744.09,105.967 770.354,105.967 796.618,105.967 822.882,105.967 
  849.146,105.967 875.41,105.967 901.674,105.967 927.938,105.967 954.202,105.967 980.466,105.967 1006.73,105.967 1032.99,105.967 1059.26,105.967 1085.52,105.967 
  1111.79,105.967 1138.05,105.967 1164.31,105.967 1190.58,105.967 1216.84,105.967 1243.1,105.967 1269.37,105.967 1295.63,105.967 1321.9,105.967 1348.16,105.967 
  1374.42,105.967 1400.69,105.967 1426.95,105.967 1453.22,105.967 1479.48,105.967 1505.74,105.967 1532.01,105.967 1558.27,105.967 1584.54,105.967 1610.8,105.967 
  1637.06,105.967 1663.33,105.967 1689.59,105.967 1715.86,105.967 1742.12,105.967 1768.38,105.967 1794.65,105.967 1820.91,105.967 1847.18,105.967 1873.44,105.967 
  1899.7,105.967 1925.97,105.967 1952.23,105.967 1978.49,105.967 2004.76,105.967 2031.02,105.967 2057.29,105.967 2083.55,105.967 2109.81,105.967 2136.08,105.967 
  2162.34,105.967 2188.61,105.967 2214.87,105.967 2241.13,105.967 2267.4,105.967 2293.66,105.967 
  "/>
<polyline clip-path="url(#clip962)" style="stroke:#7ccd7c; stroke-linecap:round; stroke-linejoin:round; stroke-width:12; stroke-opacity:1; fill:none" stroke-dasharray="48, 24, 6, 24" points="
  323.867,105.967 350.131,105.986 376.395,106.105 402.659,106.139 428.923,106.119 455.187,106.058 481.451,105.963 507.715,105.828 533.979,105.644 560.243,105.395 
  586.507,105.06 612.771,104.614 639.034,104.024 665.298,103.259 691.562,102.29 717.826,101.106 744.09,99.7428 770.354,98.3261 796.618,97.1318 822.882,96.6562 
  849.146,97.661 875.41,101.145 901.674,108.209 927.938,119.815 954.202,136.546 980.466,158.443 1006.73,185.01 1032.99,215.35 1059.26,248.37 1085.52,282.962 
  1111.79,318.137 1138.05,353.091 1164.31,387.212 1190.58,420.072 1216.84,451.393 1243.1,481.014 1269.37,508.858 1295.63,534.915 1321.9,559.212 1348.16,581.81 
  1374.42,602.784 1400.69,622.219 1426.95,640.209 1453.22,656.844 1479.48,672.219 1505.74,686.421 1532.01,699.537 1558.27,711.647 1584.54,722.829 1610.8,733.155 
  1637.06,742.691 1663.33,751.5 1689.59,759.64 1715.86,767.165 1742.12,774.124 1768.38,780.563 1794.65,786.523 1820.91,792.044 1847.18,797.161 1873.44,801.906 
  1899.7,806.31 1925.97,810.399 1952.23,814.2 1978.49,817.735 2004.76,821.025 2031.02,824.09 2057.29,826.948 2083.55,829.615 2109.81,832.105 2136.08,834.432 
  2162.34,836.61 2188.61,838.649 2214.87,840.559 2241.13,842.352 2267.4,844.035 2293.66,845.616 
  "/>
<path clip-path="url(#clip960)" d="
M496.771 1313.89 L840.401 1313.89 L840.401 989.887 L496.771 989.887  Z
  " fill="#ffffff" fill-rule="evenodd" fill-opacity="1"/>
<polyline clip-path="url(#clip960)" style="stroke:#000000; stroke-linecap:round; stroke-linejoin:round; stroke-width:4; stroke-opacity:1; fill:none" points="
  496.771,1313.89 840.401,1313.89 840.401,989.887 496.771,989.887 496.771,1313.89 
  "/>
<polyline clip-path="url(#clip960)" style="stroke:#7a67ee; stroke-linecap:round; stroke-linejoin:round; stroke-width:5; stroke-opacity:1; fill:none" points="
  519.971,1054.69 659.17,1054.69 
  "/>
<path clip-path="url(#clip960)" d="M682.37 1033.09 L691.079 1033.09 L702.104 1062.48 L713.186 1033.09 L721.895 1033.09 L721.895 1076.29 L716.195 1076.29 L716.195 1038.35 L705.055 1067.98 L699.181 1067.98 L688.041 1038.35 L688.041 1076.29 L682.37 1076.29 L682.37 1033.09 Z" fill="#000000" fill-rule="evenodd" fill-opacity="1" /><path clip-path="url(#clip960)" d="M735.032 1071.37 L744.58 1071.37 L744.58 1038.41 L734.193 1040.49 L734.193 1035.17 L744.522 1033.09 L750.367 1033.09 L750.367 1071.37 L759.916 1071.37 L759.916 1076.29 L735.032 1076.29 L735.032 1071.37 Z" fill="#000000" fill-rule="evenodd" fill-opacity="1" /><polyline clip-path="url(#clip960)" style="stroke:#1e90ff; stroke-linecap:round; stroke-linejoin:round; stroke-width:5; stroke-opacity:1; fill:none" stroke-dasharray="20, 13" points="
  519.971,1119.49 659.17,1119.49 
  "/>
<path clip-path="url(#clip960)" d="M682.37 1097.89 L707.196 1097.89 L707.196 1102.81 L688.215 1102.81 L688.215 1115.54 L705.344 1115.54 L705.344 1120.46 L688.215 1120.46 L688.215 1141.09 L682.37 1141.09 L682.37 1097.89 Z" fill="#000000" fill-rule="evenodd" fill-opacity="1" /><path clip-path="url(#clip960)" d="M716.455 1097.89 L725.165 1097.89 L736.189 1127.28 L747.271 1097.89 L755.981 1097.89 L755.981 1141.09 L750.28 1141.09 L750.28 1103.15 L739.14 1132.78 L733.267 1132.78 L722.127 1103.15 L722.127 1141.09 L716.455 1141.09 L716.455 1097.89 Z" fill="#000000" fill-rule="evenodd" fill-opacity="1" /><path clip-path="url(#clip960)" d="M769.117 1136.17 L778.666 1136.17 L778.666 1103.21 L768.278 1105.29 L768.278 1099.97 L778.608 1097.89 L784.453 1097.89 L784.453 1136.17 L794.001 1136.17 L794.001 1141.09 L769.117 1141.09 L769.117 1136.17 Z" fill="#000000" fill-rule="evenodd" fill-opacity="1" /><polyline clip-path="url(#clip960)" style="stroke:#ff7f00; stroke-linecap:round; stroke-linejoin:round; stroke-width:5; stroke-opacity:1; fill:none" stroke-dasharray="3, 5" points="
  519.971,1184.29 659.17,1184.29 
  "/>
<path clip-path="url(#clip960)" d="M682.37 1162.69 L691.079 1162.69 L702.104 1192.08 L713.186 1162.69 L721.895 1162.69 L721.895 1205.89 L716.195 1205.89 L716.195 1167.95 L705.055 1197.58 L699.181 1197.58 L688.041 1167.95 L688.041 1205.89 L682.37 1205.89 L682.37 1162.69 Z" fill="#000000" fill-rule="evenodd" fill-opacity="1" /><path clip-path="url(#clip960)" d="M739.054 1200.97 L759.453 1200.97 L759.453 1205.89 L732.022 1205.89 L732.022 1200.97 Q735.35 1197.52 741.079 1191.74 Q746.837 1185.92 748.313 1184.24 Q751.12 1181.09 752.219 1178.92 Q753.348 1176.72 753.348 1174.61 Q753.348 1171.16 750.917 1168.99 Q748.515 1166.82 744.638 1166.82 Q741.889 1166.82 738.822 1167.78 Q735.784 1168.73 732.312 1170.67 L732.312 1164.77 Q735.842 1163.35 738.909 1162.63 Q741.976 1161.91 744.522 1161.91 Q751.235 1161.91 755.228 1165.26 Q759.221 1168.62 759.221 1174.23 Q759.221 1176.89 758.209 1179.3 Q757.225 1181.67 754.592 1184.91 Q753.868 1185.75 749.991 1189.77 Q746.114 1193.76 739.054 1200.97 Z" fill="#000000" fill-rule="evenodd" fill-opacity="1" /><polyline clip-path="url(#clip960)" style="stroke:#7ccd7c; stroke-linecap:round; stroke-linejoin:round; stroke-width:5; stroke-opacity:1; fill:none" stroke-dasharray="20, 10, 3, 10" points="
  519.971,1249.09 659.17,1249.09 
  "/>
<path clip-path="url(#clip960)" d="M682.37 1227.49 L707.196 1227.49 L707.196 1232.41 L688.215 1232.41 L688.215 1245.14 L705.344 1245.14 L705.344 1250.06 L688.215 1250.06 L688.215 1270.69 L682.37 1270.69 L682.37 1227.49 Z" fill="#000000" fill-rule="evenodd" fill-opacity="1" /><path clip-path="url(#clip960)" d="M716.455 1227.49 L725.165 1227.49 L736.189 1256.88 L747.271 1227.49 L755.981 1227.49 L755.981 1270.69 L750.28 1270.69 L750.28 1232.75 L739.14 1262.38 L733.267 1262.38 L722.127 1232.75 L722.127 1270.69 L716.455 1270.69 L716.455 1227.49 Z" fill="#000000" fill-rule="evenodd" fill-opacity="1" /><path clip-path="url(#clip960)" d="M773.139 1265.77 L793.538 1265.77 L793.538 1270.69 L766.108 1270.69 L766.108 1265.77 Q769.435 1262.32 775.165 1256.54 Q780.923 1250.72 782.398 1249.04 Q785.205 1245.89 786.305 1243.72 Q787.433 1241.52 787.433 1239.41 Q787.433 1235.96 785.002 1233.79 Q782.601 1231.62 778.724 1231.62 Q775.975 1231.62 772.908 1232.58 Q769.869 1233.53 766.397 1235.47 L766.397 1229.57 Q769.927 1228.15 772.994 1227.43 Q776.062 1226.71 778.608 1226.71 Q785.321 1226.71 789.314 1230.06 Q793.307 1233.42 793.307 1239.03 Q793.307 1241.69 792.294 1244.1 Q791.31 1246.47 788.677 1249.71 Q787.954 1250.55 784.077 1254.57 Q780.199 1258.56 773.139 1265.77 Z" fill="#000000" fill-rule="evenodd" fill-opacity="1" /></svg>
